# xmcd CD database file
#
# Track frame offsets:
#	150
#	17518
#	33924
#	53647
#	68954
#	83953
#	102463
#	122478
#	142577
#	157911
#
# Disc length: 2339 seconds
#
# Revision: 7
# Processed by: cddbd v1.5.2PL0 Copyright (c) Steve Scherf et al.
# Submitted via: CDex 1.50Beta7
#
DISCID=7109210a
DTITLE=Modern Talking - Let's Talk About Love - The 2th Album
DYEAR=1985
DGENRE=Pop
TTITLE0=Cheri Cheri Lady
TTITLE1=With a little Love
TTITLE2=Wild wild Water
TTITLE3=You're the Lady of my Heart
TTITLE4=Just like an Angel
TTITLE5=Heaven will know
TTITLE6=Love don't live here Anymore
TTITLE7=Why did you do it just tonight
TTITLE8=Don't give up
TTITLE9=Let's talk about Love
EXTD=YEAR: 1985
EXTT0=
EXTT1=
EXTT2=
EXTT3=
EXTT4=
EXTT5=
EXTT6=
EXTT7=
EXTT8=
EXTT9=
PLAYORDER=
